<?xml version="1.0" encoding="UTF-8"?>
<svg id="Warstwa_1" data-name="Warstwa 1" xmlns="http://www.w3.org/2000/svg" viewBox="0 0 362.56 175.96">
  <defs>
    <style>
      .cls-1 {
        fill: #1a1a18;
      }
    </style>
  </defs>
  <polygon class="cls-1" points="89.32 173.07 89.32 157.06 86.89 157.06 86.89 154.39 95.06 154.39 95.06 157.06 92.54 157.06 92.54 163.17 101.83 163.17 101.83 157.06 99.32 157.06 99.32 154.39 107.5 154.39 107.5 157.06 105.05 157.06 105.05 173.07 107.5 173.07 107.5 175.74 99.32 175.74 99.32 173.07 101.83 173.07 101.83 165.84 92.54 165.84 92.54 173.07 95.06 173.07 95.06 175.74 86.89 175.74 86.89 173.07 89.32 173.07"/>
  <path class="cls-1" d="M123.65,165.74l-2.84-8.94h-.29l-2.96,8.94h6.09ZM124.46,168.23h-7.69l-1.64,4.84h2.59v2.67h-8.41v-2.67h2.58l5.83-16.27h-2.57v-2.41h10.91v2.41h-2.67l5.97,16.27h2.39v2.67h-8.37v-2.67h2.66l-1.59-4.84Z"/>
  <polygon class="cls-1" points="136.31 173.07 136.31 157.06 133.26 157.06 133.26 154.39 140.55 154.39 149.92 170.99 149.92 157.06 146.89 157.06 146.89 154.39 155.66 154.39 155.66 157.06 152.51 157.06 152.51 175.96 149.2 175.96 138.95 157.73 138.95 173.07 142.01 173.07 142.01 175.74 133.26 175.74 133.26 173.07 136.31 173.07"/>
  <path class="cls-1" d="M163.55,173.07h1.69c1.88,0,3.38-.12,4.47-.35,1.1-.24,2.03-.64,2.78-1.2.76-.57,1.38-1.43,1.84-2.57.48-1.15.71-2.5.71-4.06,0-1.85-.39-3.42-1.16-4.71-.77-1.29-1.76-2.13-2.96-2.53-1.2-.39-3.05-.59-5.55-.59h-1.83v16.01ZM160.33,173.07v-16.01h-2.91v-2.68h8.26c2.28,0,4.04.12,5.27.36,1.24.23,2.43.77,3.59,1.6,1.15.83,2.08,1.97,2.76,3.42.69,1.45,1.04,3.1,1.04,4.95,0,2.11-.33,3.94-1,5.5-.67,1.55-1.54,2.71-2.62,3.48-1.08.76-2.36,1.3-3.85,1.61-1.48.3-3.39.45-5.69.45h-7.77v-2.67h2.91Z"/>
  <polygon class="cls-1" points="183.15 173.07 183.15 157.06 180.59 157.06 180.59 154.39 187.89 154.39 193.52 169.03 199.19 154.39 206.57 154.39 206.57 157.06 204 157.06 204 173.07 206.57 173.07 206.57 175.74 198.53 175.74 198.53 173.07 201.08 173.07 201.08 157.06 193.71 175.96 193.08 175.96 185.79 157.06 185.79 173.07 188.14 173.07 188.14 175.74 180.59 175.74 180.59 173.07 183.15 173.07"/>
  <path class="cls-1" d="M222.7,165.74l-2.84-8.94h-.29l-2.96,8.94h6.09ZM223.51,168.23h-7.69l-1.63,4.84h2.59v2.67h-8.41v-2.67h2.58l5.83-16.27h-2.58v-2.41h10.92v2.41h-2.67l5.98,16.27h2.39v2.67h-8.37v-2.67h2.65l-1.58-4.84Z"/>
  <path class="cls-1" d="M238.56,173.07h1.69c1.88,0,3.37-.12,4.47-.35,1.09-.24,2.03-.64,2.78-1.2.76-.57,1.38-1.43,1.84-2.57.47-1.15.71-2.5.71-4.06,0-1.85-.39-3.42-1.16-4.71-.77-1.29-1.76-2.13-2.96-2.53-1.2-.39-3.05-.59-5.55-.59h-1.83v16.01ZM235.33,173.07v-16.01h-2.9v-2.68h8.26c2.28,0,4.04.12,5.27.36,1.24.23,2.43.77,3.58,1.6,1.16.83,2.08,1.97,2.77,3.42.69,1.45,1.04,3.1,1.04,4.95,0,2.11-.33,3.94-1,5.5-.66,1.55-1.53,2.71-2.61,3.48-1.08.76-2.37,1.3-3.85,1.61-1.5.3-3.39.45-5.69.45h-7.77v-2.67h2.9Z"/>
  <polygon class="cls-1" points="258.39 173.07 258.39 157.06 255.63 157.06 255.63 154.39 273.38 154.39 273.38 160.82 270.74 160.82 270.74 157.06 261.62 157.06 261.62 163.42 269.55 163.42 269.55 166.09 261.62 166.09 261.62 173.07 270.74 173.07 270.74 169.19 273.38 169.19 273.38 175.74 255.63 175.74 255.63 173.07 258.39 173.07"/>
  <rect class="cls-1" x="1.58" y="164.13" width="66.99" height="1.54"/>
  <rect class="cls-1" x="292.2" y="164.13" width="66.99" height="1.54"/>
  <polygon class="cls-1" points="40.25 124.54 40.25 124.64 34.46 124.64 34.46 124.59 26.61 101.13 18.71 124.64 12.96 124.64 3.66 95.6 0 95.6 0 90.27 15.45 90.27 15.45 95.6 9.8 95.6 15.89 115.6 24.22 90.27 28.95 90.27 37.28 115.5 43.42 95.6 37.77 95.6 37.77 90.27 53.22 90.27 53.22 95.6 49.51 95.6 40.25 124.54"/>
  <polygon class="cls-1" points="66.23 119.12 70.38 119.12 70.38 124.44 56.19 124.44 56.19 119.12 60.39 119.12 60.39 95.6 56.19 95.6 56.19 90.28 70.38 90.28 70.38 95.6 66.23 95.6 66.23 119.12"/>
  <polygon class="cls-1" points="103.51 124.44 75.93 124.44 75.93 119.12 80.12 119.12 80.12 95.6 75.93 95.6 75.93 90.27 92.16 90.27 92.16 95.6 85.97 95.6 85.97 119.02 97.86 119.02 97.86 112.99 103.51 112.99 103.51 124.44"/>
  <path class="cls-1" d="M124.62,118.86c6.58,0,11.69-5.07,11.69-11.66s-5.11-11.35-11.69-11.35h-6.58v23.01h6.58ZM124.62,90.28c10.14,0,17.64,7.19,17.64,16.93s-7.51,17.24-17.64,17.24h-16.62v-5.33h4.19v-23.52h-4.19v-5.33h16.62Z"/>
  <polygon class="cls-1" points="252.27 103.02 247.01 103.02 247.01 97.14 234.04 97.14 234.04 106.99 246.42 106.99 246.42 112.57 234.04 112.57 234.04 120.41 239.45 120.41 239.45 125.73 224.01 125.73 224.01 120.41 228.2 120.41 228.2 96.89 224.01 96.89 224.01 91.57 252.27 91.57 252.27 103.02"/>
  <path class="cls-1" d="M283.12,108.65c0-6.68-4.87-12.16-11.31-12.16s-11.35,5.48-11.35,12.16,4.87,12.16,11.35,12.16,11.31-5.48,11.31-12.16M289.02,108.65c0,9.85-7.7,17.79-17.25,17.79s-17.25-7.94-17.25-17.79,7.7-17.79,17.25-17.79,17.25,7.94,17.25,17.79"/>
  <path class="cls-1" d="M320.74,108.65c0-6.68-4.88-12.16-11.31-12.16s-11.35,5.48-11.35,12.16,4.87,12.16,11.35,12.16,11.31-5.48,11.31-12.16M326.64,108.65c0,9.85-7.7,17.79-17.25,17.79s-17.25-7.94-17.25-17.79,7.7-17.79,17.25-17.79,17.25,7.94,17.25,17.79"/>
  <path class="cls-1" d="M344.92,120.15c6.58,0,11.69-5.07,11.69-11.66s-5.11-11.35-11.69-11.35h-6.58v23.01h6.58ZM344.92,91.56c10.13,0,17.64,7.19,17.64,16.93s-7.51,17.24-17.64,17.24h-16.62v-5.33h4.19v-23.52h-4.19v-5.33h16.62Z"/>
  <polygon class="cls-1" points="174.7 94.93 158.02 86.74 159.39 84.11 173.54 91.06 180.51 79.63 187.19 91.11 201.35 85.06 202.57 87.76 185.9 94.88 180.45 85.51 174.7 94.93"/>
  <path class="cls-1" d="M135.72,56.2c.5,12.22,5.08,17.45,11.78,21.39,3.37,1.99,6.49,4.14,9.25,6.36-1.5-9.52-6.47-21.37-21.02-27.75M225.08,57.12c-14.79,6.37-19.97,17.81-21.33,28.1,3.76-3.01,7.46-5.52,9.85-7.12l.43-.29c3.97-2.67,11.2-7.54,11.05-20.68M160.34,91.31v.17c-.83,12.41,2.93,19.29,6.56,25.96.79,1.44,1.56,2.86,2.27,4.3-.18-7.25-.82-15.59-3.45-22.57-.91-2.41-2.78-5.11-5.38-7.86M200.36,92.2c-2.93,2.89-5.38,5.97-6.42,8.9-2.47,7.05-2.87,14.97-2.85,21.75.78-1.66,1.66-3.28,2.56-4.94,3.46-6.4,7.37-13.64,6.71-25.71M180.81,141.88h-.96l-.48-.07c-2.64-.21-7.23-.92-9.02-3.39-.53-.74-.8-1.91-.94-3.76l-.07-.45c0-6-2.37-10.35-5.12-15.38-3.65-6.7-7.8-14.29-6.91-27.43,0-.97-.03-2.01-.1-3.12-3.19-2.85-7.05-5.66-11.3-8.16-9.43-5.55-13.28-13.13-13.28-26.15,0-.49.25-.94.66-1.22.41-.27.94-.33,1.4-.16,19.44,7.35,24.47,23.15,25.45,34.3,4.13,3.85,7.1,7.76,8.42,11.27,3.59,9.53,3.66,21.16,3.71,29.65.02,3.8.04,8.1.56,8.91.82,1.14,3.86,2.02,7.49,2.19,3.62-.17,6.66-1.05,7.49-2.2.5-.77.41-4.78.33-8.31-.18-7.89-.43-18.69,2.92-28.25,1.47-4.19,5.21-8.42,9.37-12.14.81-12.38,6.22-27.15,25.52-34.45.45-.17.96-.12,1.37.13.41.25.67.68.7,1.15,1.09,16.39-7.93,22.46-12.26,25.38l-.43.29c-2.61,1.76-7.46,5.04-11.94,8.9-.03.7-.04,1.39-.04,2.06.89,13.18-3.31,20.95-7.02,27.8-2.69,4.98-5.02,9.28-5.02,14.92l-.12.59c-.1,1.74-.35,2.88-.88,3.62-1.79,2.48-6.39,3.19-9.02,3.4l-.48.07"/>
  <path class="cls-1" d="M153.47,20.3l-.47-.51-10-16.6c-.29-.49-.37-1.05-.23-1.6.14-.56.5-1.02,1.01-1.31.33-.19.7-.29,1.09-.29.76,0,1.48.4,1.87,1.04l.6,1,.12.13,43.01,70.52L233.19,1.13l3.75,2.11-46.44,77.77-37.03-60.71Z"/>
  <path class="cls-1" d="M236.69,3.31l-3.44-1.94-42.79,71.66L147.3,2.26l-.03.02-.69-1.14c-.36-.59-1.01-.95-1.72-.95-.35,0-.69.09-1,.26-.46.27-.79.69-.93,1.2-.13.5-.05,1.02.21,1.46l9.99,16.6.47.51,36.87,60.46L236.69,3.31Z"/>
  <path class="cls-1" d="M124.41,3.26l3.73-2.14,43.58,71.56,32.31-54.33.26-.71,9.99-16.6c.39-.64,1.1-1.04,1.87-1.04.38,0,.75.1,1.09.29.5.29.86.75,1.01,1.3.14.54.06,1.11-.23,1.6l-.57.94-.05.17-45.62,76.72L124.41,3.26Z"/>
  <path class="cls-1" d="M218.06,1.64c-.13-.51-.46-.93-.93-1.2-.3-.17-.65-.26-1-.26-.7,0-1.36.37-1.71.95l-9.99,16.6-.26.71-32.46,54.58L128.08,1.36l-3.42,1.97,47.1,77.35L217.23,4.21l-.04-.02.66-1.09c.27-.45.34-.96.21-1.46"/>
  <path class="cls-1" d="M225.16,4.58c-1.09,0-1.99-.87-1.99-1.94s.89-1.94,1.99-1.94h15.92c1.09,0,1.98.87,1.98,1.94s-.89,1.94-1.98,1.94h-15.92Z"/>
  <path class="cls-1" d="M241.08,4.23h-15.93c-.9,0-1.63-.71-1.63-1.59s.73-1.58,1.63-1.58h15.93c.9,0,1.63.71,1.63,1.58s-.73,1.59-1.63,1.59"/>
  <path class="cls-1" d="M119.67,4.58c-1.09,0-1.99-.87-1.99-1.94s.89-1.94,1.99-1.94h15.92c1.09,0,1.98.87,1.98,1.94s-.89,1.94-1.98,1.94h-15.92Z"/>
  <path class="cls-1" d="M135.6,4.23h-15.93c-.9,0-1.63-.71-1.63-1.59s.73-1.58,1.63-1.58h15.93c.9,0,1.63.71,1.63,1.58s-.73,1.59-1.63,1.59"/>
  <path class="cls-1" d="M206.26,20.02c-.48,0-.91-.23-1.17-.62l-10.92-16.6c-.19-.3-.26-.65-.19-1,.08-.35.29-.65.6-.85l.75-.21c.48,0,.91.23,1.17.62l10.93,16.6c.2.29.26.65.19.99-.08.35-.29.65-.61.85l-.75.21"/>
  <path class="cls-1" d="M199.12,30.44c-.48,0-.92-.23-1.17-.62l-10.92-16.6c-.19-.3-.26-.65-.19-1,.07-.35.29-.65.6-.85l.75-.21c.47,0,.91.23,1.17.62l10.93,16.6c.2.3.26.65.19,1-.08.35-.29.65-.6.85l-.75.21"/>
  <path class="cls-1" d="M209.37,45.87c-.47,0-.91-.23-1.17-.62l-5.29-7.99c-.2-.29-.26-.65-.19-.99.08-.35.29-.65.6-.85l.75-.21c.47,0,.91.23,1.17.62l5.29,7.99c.19.3.26.65.19,1-.07.35-.29.65-.6.84l-.75.22"/>
  <path class="cls-1" d="M155.37,20.02c.48,0,.91-.23,1.17-.62l10.93-16.6c.19-.3.26-.65.18-1-.08-.35-.29-.65-.6-.85l-.75-.21c-.48,0-.91.23-1.17.62l-10.93,16.6c-.2.29-.26.65-.19.99.08.35.29.65.61.85l.75.21"/>
  <path class="cls-1" d="M162.51,30.44c.48,0,.91-.23,1.17-.62l10.93-16.6c.19-.3.26-.65.19-1-.08-.35-.29-.65-.61-.85l-.75-.21c-.48,0-.91.23-1.17.62l-10.93,16.6c-.19.3-.26.65-.18,1,.07.35.29.65.6.85l.75.21"/>
  <path class="cls-1" d="M152.26,45.87c.47,0,.91-.23,1.17-.62l5.29-7.99c.2-.29.26-.65.19-.99-.08-.35-.29-.65-.6-.85l-.75-.21c-.48,0-.91.23-1.17.62l-5.29,7.99c-.2.3-.27.65-.19,1,.08.35.29.65.6.84l.75.22"/>
</svg>